<svg width="200" height="250" xmlns="http://www.w3.org/2000/svg">
  <rect width="100%" height="100%" fill="#faf5ff"/>
  <rect x="0" y="0" y="0" width="60" height="250" fill="#c4b5fd"/>
  <rect x="70" y="20" width="110" height="15" fill="#8b5cf6"/>
  <circle cx="30" cy="50" r="10" fill="white"/>
  <rect x="70" y="50" width="80" height="10" fill="#ddd6fe"/>
  <rect x="70" y="65" width="60" height="10" fill="#ddd6fe"/>
  <rect x="20" y="90" width="160" height="40" fill="#f3e8ff" stroke="#ddd6fe" stroke-width="1"/>
  <rect x="30" y="100" width="40" height="8" fill="#c4b5fd"/>
  <rect x="30" y="115" width="120" height="6" fill="#e9d5ff"/>
  <rect x="20" y="140" width="160" height="40" fill="#f3e8ff" stroke="#ddd6fe" stroke-width="1"/>
  <rect x="30" y="150" width="40" height="8" fill="#c4b5fd"/>
  <rect x="30" y="165" width="100" height="6" fill="#e9d5ff"/>
  <rect x="20" y="190" width="160" height="40" fill="#f3e8ff" stroke="#ddd6fe" stroke-width="1"/>
  <rect x="30" y="200" width="40" height="8" fill="#c4b5fd"/>
  <rect x="30" y="215" width="80" height="6" fill="#e9d5ff"/>
</svg>